<svg width="360" height="755" viewBox="0 0 360 755" fill="none" xmlns="http://www.w3.org/2000/svg">
<path d="M7.62939e-06 436H360L360 755H0L7.62939e-06 436Z" fill="#4673C9"/>
<path d="M0 0H360V632.498C183 566 186 707 0 632.498V0Z" fill="#FF9A03"/>
<path d="M168.25 675.687H31.3656V758.58H168.25V675.687Z" fill="#455A64"/>
<path d="M165.196 673.313H27.96C19.6978 673.313 13 679.697 13 687.572V688.15C13 696.025 19.6978 702.409 27.96 702.409H165.196C173.458 702.409 180.156 696.025 180.156 688.15V687.572C180.156 679.697 173.458 673.313 165.196 673.313Z" fill="#455A64"/>
<path d="M168.434 702.015C168.434 702.124 136.455 702.216 97.0224 702.216C57.5896 702.216 25.6016 702.124 25.6016 702.015C25.6016 701.906 57.572 701.814 97.0224 701.814C136.473 701.814 168.434 701.897 168.434 702.015Z" fill="#151A1D"/>
<path d="M49.652 759.243C49.5288 759.243 49.432 746.603 49.432 731.019C49.432 715.435 49.5288 702.795 49.652 702.795C49.7752 702.795 49.8632 715.435 49.8632 731.019C49.8632 746.603 49.7664 759.243 49.652 759.243Z" fill="#151A1D"/>
<path d="M136.174 690.667C135.948 689.965 135.769 689.251 135.637 688.528C135.214 686.802 134.625 685.118 133.877 683.495C133.122 681.884 132.217 680.341 131.175 678.882C130.7 678.301 130.262 677.693 129.864 677.062C130.456 677.556 130.979 678.12 131.422 678.74C133.686 681.609 135.231 684.934 135.936 688.461C136.114 689.183 136.194 689.925 136.174 690.667Z" fill="#151A1D"/>
<path d="M143.522 686.322C143.451 686.322 143.152 685.483 142.422 684.234C140.5 680.931 137.418 678.38 133.718 677.029C132.302 676.509 131.378 676.349 131.386 676.274C131.611 676.258 131.837 676.278 132.055 676.332C132.653 676.427 133.241 676.567 133.815 676.752C137.679 677.984 140.872 680.626 142.694 684.099C142.97 684.614 143.2 685.15 143.381 685.701C143.462 685.9 143.51 686.109 143.522 686.322Z" fill="#151A1D"/>
<path d="M61.928 673.917C67.3928 702.669 76.888 732.336 90.308 758.63H96.468C98.9848 755.275 98.1488 750.679 96.5736 746.888C94.9984 743.097 92.772 739.339 92.7984 735.238C92.7984 732.722 93.6784 730.264 94.0216 727.756C95.28 718.069 88.3016 709.211 86.6824 699.574C86.1016 696.093 86.436 692.067 89.208 689.727C91.6368 687.672 95.192 687.513 98.4392 687.589C106.922 687.781 115.538 688.796 123.818 687.018C132.099 685.24 140.239 679.838 141.955 671.921L61.928 673.917Z" fill="black"/>
<path d="M142.281 583.676L169.094 576.773C169.094 576.773 163.357 560.552 158.886 548.868C154.935 538.535 148.326 534.232 144.859 531.892C143.464 530.944 141.849 530.334 140.151 530.114C133.798 529.275 116.444 527.136 107.829 526.448C97.172 525.609 74.9256 531.187 74.9256 531.187C74.9256 531.187 55.416 541.504 48.8336 545.672C47.2263 546.682 45.9945 548.15 45.3136 549.866C44.0992 552.986 42.5504 558.346 40.7024 565.274C39.5144 569.686 35.616 584.271 35.616 584.271L58.496 583.6C63.1072 596.945 67.384 608.931 67.384 608.931L63.2392 633.472C63.2392 633.472 94.5144 645.391 102.505 644.544C110.495 643.697 146.707 630.369 146.707 630.369C146.707 630.369 142.562 591.434 142.562 590.31C142.562 589.874 142.439 587.048 142.281 583.676Z" fill="#4673C9"/>
<path d="M115.898 557.717C114.999 556.739 113.86 555.988 112.583 555.532C111.305 555.075 109.929 554.927 108.577 555.1C105.877 555.475 103.316 556.481 101.123 558.027C94.18 562.514 89.2608 569.283 84.9048 576.102C77.3084 588.002 70.9256 600.568 65.844 613.628L66.02 616.983C71.7136 616.303 75.4184 611.724 77.8912 606.792C80.364 601.86 81.4112 596.4 83.6024 591.342C87.8324 581.622 95.9245 573.891 106.113 569.837C107.808 570.045 109.53 569.866 111.138 569.315C112.746 568.763 114.194 567.856 115.362 566.666C117.579 564.226 118.002 560.267 115.898 557.717Z" fill="black"/>
<path d="M142.545 587.912C142.413 587.912 141.665 580.833 140.846 572.093C140.028 563.353 139.482 556.249 139.606 556.232C139.729 556.215 140.486 563.303 141.304 572.051C142.122 580.799 142.694 587.895 142.545 587.912Z" fill="#151A1D"/>
<path d="M52.4064 556.232C52.5526 556.588 52.6645 556.956 52.7408 557.331C52.9432 558.17 53.1896 559.151 53.4888 560.367C54.1048 562.883 54.932 566.473 55.8032 570.432C56.6744 574.391 57.4576 577.914 57.9856 580.497C58.232 581.722 58.4344 582.753 58.6016 583.559C58.6967 583.93 58.7498 584.309 58.76 584.691C58.6121 584.336 58.5001 583.968 58.4256 583.592C58.2232 582.795 57.9768 581.78 57.6688 580.564C57.0528 577.998 56.2344 574.45 55.3544 570.499C54.4744 566.549 53.7088 563.018 53.172 560.434C52.9344 559.21 52.7232 558.186 52.5648 557.381C52.4688 557.005 52.4157 556.62 52.4064 556.232Z" fill="#151A1D"/>
<path d="M138.453 530.416C138.585 530.416 137.81 533.284 137.282 536.849C136.754 540.413 136.64 543.349 136.499 543.349C136.38 542.713 136.35 542.064 136.411 541.42C136.457 539.87 136.595 538.325 136.825 536.79C137.057 535.255 137.384 533.734 137.802 532.236C137.931 531.603 138.15 530.991 138.453 530.416Z" fill="#151A1D"/>
<path d="M142.281 583.676C142.043 583.743 149.101 606.859 149.101 606.859L128.359 605.249L118.459 616.807L153.809 629.22C153.809 629.22 175.721 619.91 175.721 619.063C175.721 618.216 167.801 577.125 167.801 577.125L142.281 583.676Z" fill="#886962"/>
<path d="M127.022 586.352C127.224 586.346 127.423 586.3 127.606 586.218C127.789 586.136 127.953 586.019 128.086 585.874C128.248 585.703 128.372 585.503 128.449 585.285C128.526 585.067 128.555 584.836 128.535 584.607C128.49 584.298 128.352 584.008 128.138 583.771C127.924 583.535 127.644 583.362 127.33 583.273C126.942 583.139 126.525 583.105 126.119 583.176C125.714 583.247 125.336 583.419 125.024 583.676C124.657 583.963 124.357 584.32 124.144 584.725C124.033 584.939 123.944 585.164 123.88 585.395C123.818 585.63 123.739 585.89 123.88 586.041C123.956 586.118 124.054 586.172 124.162 586.197C124.269 586.222 124.382 586.218 124.487 586.184C124.734 586.12 124.951 585.978 125.103 585.781C125.265 585.567 125.372 585.32 125.415 585.059C125.458 584.798 125.435 584.531 125.35 584.28C125.216 584.019 125.029 583.786 124.799 583.594C124.57 583.403 124.302 583.258 124.013 583.166C123.724 583.075 123.418 583.039 123.114 583.062C122.81 583.085 122.514 583.165 122.243 583.299C121.624 583.566 121.083 583.975 120.668 584.49C120.457 584.729 120.319 585.019 120.272 585.328C120.25 585.463 120.283 585.601 120.363 585.715C120.442 585.828 120.564 585.909 120.703 585.941C120.863 585.962 121.026 585.948 121.179 585.898C121.332 585.849 121.47 585.765 121.583 585.656C121.817 585.43 121.961 585.133 121.988 584.817C122.007 584.47 121.931 584.124 121.77 583.813C121.608 583.501 121.365 583.235 121.064 583.039C120.737 582.847 120.371 582.725 119.99 582.678C119.609 582.632 119.222 582.663 118.855 582.77C118.473 582.853 118.116 583.017 117.811 583.251C117.506 583.485 117.261 583.783 117.095 584.121C117.009 584.279 116.96 584.453 116.951 584.631C116.942 584.809 116.973 584.987 117.042 585.152C117.121 585.307 117.247 585.435 117.405 585.519C117.562 585.603 117.743 585.639 117.922 585.622C118.115 585.616 118.304 585.567 118.472 585.477C118.641 585.387 118.784 585.259 118.889 585.105C118.995 584.951 119.059 584.775 119.078 584.592C119.097 584.409 119.068 584.224 118.996 584.054C118.852 583.682 118.584 583.366 118.232 583.155C117.88 582.944 117.465 582.85 117.051 582.888C116.158 582.961 115.322 583.336 114.693 583.944C114.346 584.233 114.036 584.56 113.769 584.917C113.64 585.068 113.55 585.244 113.505 585.434C113.461 585.623 113.464 585.82 113.514 586.008C113.559 586.082 113.62 586.148 113.692 586.2C113.764 586.252 113.846 586.289 113.934 586.31C114.022 586.332 114.113 586.336 114.203 586.323C114.292 586.31 114.378 586.279 114.455 586.234C114.634 586.139 114.78 585.997 114.875 585.824C114.971 585.651 115.011 585.456 114.992 585.261C114.962 584.823 114.821 584.399 114.58 584.025C114.339 583.651 114.006 583.338 113.61 583.114C113.004 582.759 112.285 582.621 111.582 582.725C110.879 582.83 110.237 583.17 109.774 583.684C109.625 583.845 109.513 584.033 109.443 584.236C109.373 584.439 109.348 584.654 109.369 584.867C109.457 585.706 110.918 585.882 111.393 585.177C111.623 584.798 111.689 584.348 111.575 583.923C111.462 583.498 111.178 583.133 110.786 582.904C110.367 582.681 109.9 582.552 109.421 582.528C108.942 582.503 108.464 582.583 108.022 582.762C107.56 582.93 107.118 583.144 106.702 583.399C106.293 583.617 105.939 583.918 105.664 584.28C105.542 584.443 105.469 584.635 105.453 584.834C105.438 585.034 105.48 585.234 105.576 585.412C105.612 585.494 105.666 585.568 105.734 585.628C105.803 585.688 105.884 585.734 105.972 585.761C106.061 585.789 106.154 585.799 106.247 585.789C106.339 585.78 106.429 585.751 106.509 585.706C106.682 585.604 106.819 585.456 106.904 585.28C106.988 585.103 107.016 584.907 106.984 584.716C106.924 584.294 106.738 583.898 106.447 583.575C106.166 583.249 105.804 582.994 105.394 582.833C104.984 582.672 104.539 582.61 104.098 582.653C103.664 582.692 103.248 582.833 102.886 583.063C102.523 583.292 102.226 583.604 102.021 583.97C101.926 584.135 101.871 584.319 101.859 584.507C101.847 584.696 101.878 584.884 101.95 585.06C102.03 585.211 102.159 585.333 102.318 585.407C102.477 585.481 102.657 585.504 102.83 585.471C103.019 585.45 103.198 585.383 103.352 585.278C103.506 585.172 103.63 585.031 103.71 584.867C103.789 584.696 103.829 584.512 103.829 584.326C103.829 584.14 103.789 583.956 103.71 583.785C103.539 583.437 103.279 583.136 102.952 582.91C102.626 582.684 102.245 582.541 101.845 582.493C101.048 582.323 100.22 582.344 99.4336 582.552C99.0659 582.632 98.7277 582.805 98.455 583.053C98.1823 583.301 97.9852 583.615 97.8848 583.961C97.8048 584.295 97.8489 584.644 98.0094 584.95C98.1699 585.256 98.4369 585.5 98.7648 585.639C99.0936 585.698 99.4337 585.632 99.7119 585.455C99.99 585.278 100.184 585.003 100.252 584.691C100.319 584.373 100.305 584.045 100.21 583.734C100.115 583.423 99.9421 583.138 99.7064 582.904C99.2593 582.426 98.6699 582.09 98.0168 581.94C97.4027 581.797 96.7614 581.799 96.1482 581.945C95.535 582.091 94.9682 582.377 94.4968 582.779C94.0624 583.144 93.7554 583.627 93.6168 584.163C93.5535 584.403 93.5619 584.655 93.6413 584.89C93.7206 585.126 93.8676 585.336 94.0656 585.496C94.2458 585.641 94.4762 585.718 94.7121 585.71C94.9479 585.702 95.1723 585.611 95.3416 585.454C95.5093 585.311 95.6366 585.13 95.7119 584.928C95.7873 584.726 95.8082 584.509 95.7728 584.297C95.7053 583.893 95.5353 583.51 95.2777 583.183C95.0201 582.855 94.6826 582.593 94.2944 582.418C93.709 582.113 93.0297 582.015 92.376 582.141C91.8941 582.238 91.4442 582.446 91.0648 582.745C90.7569 583.002 90.4953 583.305 90.2904 583.643C90.3211 583.546 90.3624 583.454 90.4136 583.366C90.5687 583.107 90.768 582.874 91.0032 582.678C91.3828 582.351 91.8428 582.12 92.3408 582.007C93.0312 581.86 93.7541 581.949 94.3824 582.259C94.784 582.444 95.1343 582.716 95.4049 583.054C95.6755 583.392 95.8588 583.786 95.94 584.204C95.9812 584.453 95.9578 584.708 95.8719 584.946C95.786 585.185 95.6402 585.399 95.4472 585.572C95.2327 585.767 94.9504 585.881 94.6537 585.892C94.357 585.903 94.0663 585.81 93.8368 585.63C93.5979 585.442 93.4188 585.194 93.3193 584.914C93.2198 584.634 93.204 584.333 93.2736 584.045C93.3969 583.458 93.7037 582.92 94.1536 582.502C94.6585 582.061 95.2693 581.746 95.9323 581.583C96.5953 581.421 97.29 581.417 97.9552 581.571C98.6823 581.73 99.34 582.099 99.8384 582.628C100.114 582.902 100.316 583.236 100.426 583.602C100.537 583.967 100.552 584.352 100.472 584.725C100.357 585.114 100.113 585.459 99.7768 585.706C99.5988 585.835 99.3914 585.923 99.1714 585.962C98.9514 586.002 98.7247 585.991 98.5096 585.932C98.2976 585.865 98.1031 585.756 97.9392 585.611C97.7753 585.466 97.6457 585.29 97.5592 585.094C97.3658 584.711 97.3013 584.28 97.3744 583.861C97.4911 583.45 97.7221 583.078 98.0427 582.783C98.3634 582.487 98.7619 582.28 99.196 582.183C100.054 581.944 100.962 581.913 101.836 582.091C102.304 582.155 102.749 582.329 103.13 582.597C103.51 582.865 103.816 583.218 104.018 583.626C104.116 583.847 104.167 584.086 104.167 584.326C104.167 584.567 104.116 584.805 104.018 585.026C103.906 585.252 103.736 585.447 103.523 585.593C103.311 585.74 103.064 585.833 102.804 585.865C102.532 585.918 102.25 585.884 102 585.769C101.751 585.653 101.548 585.463 101.422 585.228C101.32 584.993 101.273 584.74 101.285 584.486C101.297 584.233 101.368 583.984 101.493 583.76C101.735 583.326 102.087 582.955 102.516 582.681C102.945 582.407 103.438 582.239 103.952 582.191C104.466 582.143 104.984 582.216 105.461 582.405C105.938 582.594 106.358 582.892 106.685 583.273C107.041 583.659 107.265 584.139 107.327 584.649C107.368 584.925 107.323 585.206 107.198 585.458C107.073 585.71 106.873 585.922 106.623 586.066C106.493 586.143 106.347 586.192 106.195 586.211C106.044 586.23 105.89 586.218 105.743 586.176C105.448 586.076 105.205 585.872 105.066 585.605C104.929 585.356 104.865 585.076 104.883 584.796C104.9 584.515 104.996 584.244 105.162 584.012C105.473 583.59 105.879 583.241 106.35 582.988C106.793 582.714 107.265 582.486 107.758 582.309C108.269 582.104 108.821 582.014 109.374 582.046C109.926 582.078 110.464 582.231 110.944 582.493C111.197 582.637 111.417 582.827 111.591 583.053C111.766 583.279 111.891 583.536 111.96 583.809C112.029 584.081 112.04 584.365 111.992 584.641C111.945 584.918 111.84 585.183 111.683 585.421C111.5 585.654 111.252 585.835 110.969 585.945C110.685 586.054 110.375 586.087 110.073 586.041C109.749 586.012 109.442 585.889 109.193 585.689C108.959 585.487 108.804 585.215 108.753 584.917C108.719 584.641 108.747 584.361 108.833 584.095C108.92 583.83 109.063 583.584 109.254 583.374C109.792 582.771 110.538 582.371 111.359 582.248C112.179 582.124 113.019 582.286 113.725 582.703C114.186 582.967 114.573 583.334 114.852 583.772C115.132 584.211 115.294 584.707 115.326 585.219C115.342 585.497 115.274 585.773 115.133 586.017C114.991 586.26 114.781 586.46 114.526 586.595C114.253 586.722 113.942 586.758 113.646 586.696C113.492 586.663 113.348 586.597 113.226 586.502C113.104 586.408 113.006 586.287 112.942 586.15C112.859 585.894 112.842 585.622 112.893 585.358C112.943 585.093 113.06 584.845 113.232 584.632C113.52 584.242 113.856 583.887 114.235 583.575C114.941 582.9 115.878 582.49 116.875 582.418C117.386 582.393 117.893 582.509 118.336 582.753C118.774 583.016 119.101 583.417 119.26 583.886C119.343 584.119 119.371 584.367 119.342 584.612C119.313 584.857 119.228 585.093 119.093 585.303C118.946 585.506 118.752 585.673 118.526 585.792C118.3 585.911 118.048 585.979 117.79 585.991C117.527 586.007 117.265 585.949 117.036 585.824C116.808 585.699 116.623 585.512 116.506 585.286C116.409 585.069 116.364 584.834 116.373 584.597C116.382 584.361 116.445 584.13 116.558 583.919C116.753 583.525 117.039 583.178 117.396 582.907C117.753 582.635 118.171 582.444 118.618 582.351C119.04 582.232 119.485 582.199 119.922 582.256C120.358 582.312 120.778 582.456 121.152 582.678C121.51 582.912 121.797 583.231 121.987 583.603C122.177 583.975 122.262 584.387 122.234 584.8C122.232 585.011 122.184 585.219 122.091 585.41C121.999 585.602 121.866 585.773 121.7 585.912C121.534 586.052 121.339 586.156 121.128 586.219C120.917 586.281 120.694 586.301 120.474 586.276C120.248 586.224 120.049 586.095 119.916 585.912C119.783 585.73 119.725 585.507 119.753 585.286C119.811 584.907 119.979 584.55 120.237 584.255C120.696 583.709 121.284 583.275 121.953 582.988C122.584 582.7 123.31 582.663 123.97 582.885C124.63 583.107 125.17 583.569 125.473 584.171C125.576 584.466 125.603 584.781 125.549 585.088C125.495 585.395 125.363 585.685 125.165 585.932C124.971 586.178 124.694 586.353 124.382 586.427C124.224 586.472 124.055 586.471 123.898 586.423C123.741 586.375 123.603 586.283 123.502 586.159C123.444 586.026 123.414 585.883 123.414 585.739C123.414 585.595 123.444 585.453 123.502 585.32C123.576 585.076 123.676 584.84 123.801 584.615C124.03 584.183 124.35 583.8 124.742 583.492C125.087 583.221 125.5 583.042 125.941 582.973C126.381 582.904 126.833 582.947 127.25 583.097C127.593 583.202 127.896 583.398 128.124 583.663C128.352 583.928 128.495 584.25 128.535 584.59C128.549 584.836 128.51 585.082 128.421 585.312C128.332 585.543 128.194 585.754 128.016 585.932C127.896 586.071 127.743 586.181 127.571 586.254C127.398 586.327 127.21 586.36 127.022 586.352Z" fill="#151A1D"/>
<path d="M90.1232 583.936L78.0144 627.551L116.514 628.708L128.623 585.63L90.1232 583.936Z" fill="#455A64"/>
<path d="M90.1232 583.936L88.5832 584.07L76.3688 624.355L78.2256 626.788L90.1232 583.936Z" fill="#E0E0E0"/>
<path d="M115.608 595.049H128.113C128.702 595.041 129.28 595.2 129.774 595.507C130.267 595.813 130.654 596.252 130.885 596.769C131.384 597.852 131.631 599.025 131.606 600.208C132.146 600.908 132.453 601.747 132.486 602.615C132.612 604.791 132.612 606.972 132.486 609.149C132.372 609.493 131.043 609.837 131.043 609.837C131.043 609.837 131.923 611.673 131.166 613.041C130.812 613.809 130.168 614.422 129.362 614.76C129.362 614.76 127.682 618.434 125.992 618.887C124.302 619.34 122.754 618.887 121.909 618.887C121.064 618.887 107.477 612.244 107.477 612.244V610.751C107.477 610.751 102.672 611.212 102.549 608.687C102.426 606.163 105.673 606.322 105.673 606.322H113.012C113.012 606.322 104.951 606.624 104.212 605.483C103.473 604.343 102.522 601.583 104.986 601.13C107.45 600.677 118.574 600.669 118.574 600.669L124.646 601.625H125.605L124.857 599.109C124.857 599.109 118.486 599.109 117.535 598.983C116.585 598.857 114.79 598.639 114.79 597.037C114.79 595.435 115.608 595.049 115.608 595.049Z" fill="#886962"/>
<path d="M122.639 607.027C121.87 607.157 121.088 607.208 120.307 607.178C118.864 607.178 116.866 607.178 114.666 607.027C112.466 606.876 110.478 606.674 109.052 606.482C108.272 606.417 107.502 606.271 106.755 606.045C107.534 606.012 108.315 606.049 109.087 606.154C110.522 606.272 112.502 606.431 114.693 606.565C116.884 606.7 118.873 606.784 120.307 606.851C121.089 606.835 121.87 606.894 122.639 607.027Z" fill="#2B2625"/>
<path d="M121.504 613.452C120.809 613.521 120.108 613.501 119.418 613.393C118.142 613.284 116.382 613.091 114.446 612.789C112.51 612.487 110.777 612.151 109.527 611.858C108.841 611.745 108.17 611.557 107.53 611.296C108.226 611.301 108.92 611.383 109.598 611.539L114.526 612.336L119.462 613.074C120.155 613.132 120.839 613.259 121.504 613.452Z" fill="#2B2625"/>
<path d="M131.976 604.443C131.976 604.443 132.152 604.494 132.416 604.703C132.781 605.01 133.06 605.4 133.226 605.836C133.496 606.519 133.481 607.276 133.182 607.949C132.985 608.376 132.689 608.755 132.315 609.056C131.941 609.357 131.5 609.572 131.026 609.686L131.166 609.358C131.448 609.816 131.625 610.326 131.686 610.854C131.747 611.382 131.69 611.916 131.519 612.421C131.347 612.927 131.066 613.392 130.693 613.786C130.32 614.181 129.863 614.495 129.354 614.71L129.494 614.559C129.067 616.111 128.118 617.487 126.793 618.476C126.415 618.753 126.008 618.992 125.578 619.189C125.43 619.272 125.265 619.326 125.094 619.348C125.094 619.289 125.719 619.012 126.608 618.266C127.808 617.261 128.66 615.933 129.054 614.458V614.349L129.16 614.307C129.604 614.113 130.002 613.833 130.326 613.485C130.651 613.137 130.896 612.728 131.046 612.285C131.196 611.841 131.247 611.373 131.197 610.91C131.146 610.446 130.995 609.998 130.753 609.593L130.577 609.333L130.894 609.258C131.305 609.167 131.69 608.988 132.019 608.735C132.348 608.483 132.613 608.162 132.794 607.798C133.085 607.211 133.135 606.541 132.935 605.92C132.73 605.368 132.403 604.864 131.976 604.443Z" fill="#2B2625"/>
<path d="M102.505 547.744L110.222 532.932L107.829 526.44C107.829 526.44 119.41 520.711 115.45 509.019C113.54 503.374 108.612 492.051 104.01 481.852C101.631 476.569 97.2536 472.332 91.7471 469.985C86.2406 467.639 80.009 467.354 74.292 469.187L73.1128 469.564C60.652 474.345 57.9504 487.103 63.3096 498.845L78.9824 542.46L102.505 547.744Z" fill="#886962"/>
<path d="M107.838 526.406C102.232 528.313 96.1572 528.588 90.3872 527.195C90.3872 527.195 97.1104 534.366 108.938 529.409L107.838 526.406Z" fill="#2B2625"/>
<path d="M104.441 491.045C104.598 491.477 104.571 491.95 104.367 492.363C104.164 492.777 103.798 493.098 103.35 493.259C103.133 493.348 102.901 493.394 102.665 493.396C102.43 493.397 102.196 493.354 101.979 493.268C101.762 493.182 101.564 493.055 101.399 492.895C101.234 492.735 101.104 492.545 101.018 492.336C100.861 491.905 100.887 491.431 101.091 491.018C101.295 490.604 101.66 490.283 102.109 490.122C102.325 490.033 102.558 489.987 102.793 489.985C103.029 489.984 103.262 490.028 103.479 490.114C103.697 490.2 103.894 490.326 104.059 490.486C104.224 490.646 104.354 490.836 104.441 491.045Z" fill="#151A1D"/>
<path d="M103.376 487.69C103.235 487.975 101.616 487.472 99.7152 488.076C97.8144 488.68 96.776 490.022 96.4944 489.862C96.3624 489.803 96.4416 489.334 96.8992 488.73C97.5215 487.94 98.3855 487.354 99.372 487.052C100.353 486.749 101.409 486.749 102.39 487.052C103.094 487.228 103.446 487.564 103.376 487.69Z" fill="#151A1D"/>
<path d="M87.1664 496.505C87.3235 496.938 87.2975 497.412 87.0938 497.827C86.89 498.242 86.5247 498.565 86.0752 498.728C85.859 498.816 85.6263 498.863 85.3908 498.864C85.1554 498.866 84.9221 498.822 84.7046 498.736C84.4872 498.65 84.29 498.523 84.1249 498.363C83.9598 498.203 83.83 498.014 83.7432 497.805C83.5861 497.372 83.6122 496.898 83.8159 496.483C84.0196 496.068 84.385 495.745 84.8344 495.582C85.0507 495.494 85.2834 495.447 85.5188 495.446C85.7542 495.444 85.9876 495.488 86.205 495.574C86.4225 495.66 86.6196 495.787 86.7847 495.947C86.9499 496.106 87.0797 496.296 87.1664 496.505Z" fill="#151A1D"/>
<path d="M85.1424 492.991C85.028 493.293 83.3296 492.991 81.5344 493.754C79.7392 494.517 78.8416 495.985 78.5424 495.868C78.4016 495.817 78.428 495.348 78.8152 494.693C79.3401 493.834 80.1341 493.154 81.0856 492.747C82.0188 492.331 83.0673 492.211 84.0776 492.404C84.8256 492.563 85.1952 492.856 85.1424 492.991Z" fill="#151A1D"/>
<path d="M96.5736 505.698C97.4551 505.082 98.4164 504.577 99.4336 504.196C99.9 503.995 100.314 503.76 100.314 503.425C100.314 503.089 99.9352 502.628 99.5216 502.167L96.8816 499.147C93.168 494.819 90.2992 491.204 90.484 491.062C90.6688 490.919 93.828 494.316 97.524 498.61L100.111 501.672C100.607 502.129 100.919 502.737 100.991 503.391C100.977 503.575 100.92 503.753 100.824 503.912C100.728 504.072 100.596 504.209 100.437 504.314C100.196 504.464 99.9354 504.586 99.6624 504.674C98.6828 505.14 97.6448 505.483 96.5736 505.698Z" fill="#151A1D"/>
<path d="M82.5904 486.801C82.5904 487.346 80.6192 487.715 78.5072 488.671C76.3952 489.627 74.8112 490.776 74.3624 490.432C74.16 490.265 74.3096 489.711 74.864 489.007C75.6213 488.124 76.5785 487.417 77.6636 486.937C78.7488 486.458 79.9337 486.219 81.1296 486.239C82.0448 486.247 82.5904 486.499 82.5904 486.801Z" fill="#151A1D"/>
<path d="M101.141 482.875C100.956 483.395 99.5128 483.387 97.9464 483.865C96.38 484.343 95.1744 485.056 94.7168 484.704C94.5144 484.536 94.576 484.066 95.016 483.496C95.6277 482.788 96.4454 482.269 97.3662 482.003C98.287 481.738 99.2696 481.738 100.19 482.003C100.886 482.271 101.22 482.607 101.141 482.875Z" fill="#151A1D"/>
<path d="M67.3488 507.107C67.1112 507.107 58.1176 507.425 61.1888 515.301C64.26 523.177 71.9248 518.656 71.8544 518.379C71.784 518.103 67.3488 507.107 67.3488 507.107Z" fill="#886962"/>
<path d="M68.1672 516.291C68.1232 516.291 68.0616 516.442 67.8592 516.635C67.5718 516.895 67.1904 517.039 66.7944 517.038C65.8 517.038 64.5504 515.981 63.9608 514.572C63.6715 513.906 63.5451 513.186 63.5912 512.466C63.5725 512.193 63.6246 511.919 63.7427 511.669C63.8608 511.419 64.0415 511.2 64.2688 511.032C64.4191 510.937 64.5993 510.894 64.7788 510.911C64.9584 510.928 65.1264 511.003 65.2544 511.124C65.448 511.301 65.4568 511.477 65.5096 511.477C65.5624 511.477 65.6328 511.284 65.4392 510.982C65.3156 510.804 65.1327 510.671 64.92 510.604C64.6275 510.52 64.312 510.547 64.04 510.68C63.7246 510.865 63.4644 511.124 63.2841 511.433C63.1038 511.741 63.0096 512.088 63.0104 512.441C62.9257 513.246 63.0496 514.058 63.3712 514.807C64.04 516.375 65.4744 517.566 66.7944 517.465C67.0406 517.449 67.2799 517.38 67.4946 517.264C67.7093 517.148 67.894 516.987 68.0352 516.794C68.2288 516.492 68.2024 516.3 68.1672 516.291Z" fill="#2B2625"/>
<path d="M91.4784 508.709C91.7776 508.591 92.4728 510.537 94.6992 511.351C96.9256 512.164 99.0288 511.267 99.0992 511.527C99.1696 511.644 98.7472 512.064 97.8408 512.366C96.6537 512.765 95.3567 512.75 94.18 512.324C93.0491 511.917 92.1279 511.109 91.6104 510.068C91.276 509.296 91.3376 508.742 91.4784 508.709Z" fill="#151A1D"/>
<path d="M107.019 464.607C106.64 463.884 106.078 463.262 105.384 462.798C104.689 462.334 103.884 462.042 103.042 461.949C102.879 461.509 102.673 461.084 102.426 460.682C101.664 459.458 100.484 458.521 99.0845 458.026C97.6846 457.532 96.1491 457.51 94.7344 457.964C94.1446 457.018 93.295 456.242 92.2771 455.721C91.2592 455.2 90.1114 454.953 88.9574 455.007C87.8034 455.062 86.6867 455.415 85.7277 456.029C84.7686 456.643 84.0034 457.495 83.5144 458.493C82.1638 457.976 80.6857 457.84 79.2564 458.102C77.8271 458.364 76.507 459.012 75.4536 459.969C75.1784 460.19 74.9741 460.481 74.864 460.808C74.8392 460.92 74.8389 461.036 74.8631 461.149C74.8874 461.261 74.9356 461.368 75.0048 461.462C74.4072 461 73.7016 460.683 72.9478 460.537C72.194 460.391 71.4144 460.421 70.6752 460.623C70.1751 460.77 69.7049 460.997 69.2848 461.294C68 461.828 66.9837 462.818 66.4512 464.054C64.5795 464.081 62.7831 464.761 61.4016 465.965C60.0201 467.169 59.1492 468.813 58.9536 470.588C57.6187 471.119 56.4799 472.017 55.6822 473.167C54.8845 474.317 54.4641 475.667 54.4744 477.046C53.6088 477.389 52.8546 477.945 52.2892 478.658C51.7239 479.371 51.3678 480.214 51.2576 481.101C51.1474 481.989 51.287 482.888 51.6621 483.707C52.0373 484.526 52.6343 485.234 53.392 485.761C53.392 485.761 47.9888 488.898 51.2624 493.385C52.9344 495.683 56.3664 494.089 56.3664 494.089L66.5216 508.742C66.4776 508.843 68.2816 510.361 69.1616 509.631C70.0416 508.902 70.244 507.736 70.5168 506.662C70.9344 505.466 71.1512 504.215 71.1592 502.955C71.1466 502.325 70.9203 501.715 70.5143 501.218C70.1082 500.721 69.5441 500.362 68.9064 500.195C69.5126 499.693 69.9693 499.047 70.2303 498.322C70.4914 497.598 70.5477 496.821 70.3936 496.069C70.0745 494.569 69.4786 493.135 68.6336 491.833L65.228 485.903C66.7278 485.361 68.0436 484.438 69.0332 483.235C70.0227 482.032 70.6483 480.593 70.8424 479.076C71.5257 479.264 72.243 479.311 72.947 479.216C73.6511 479.12 74.3259 478.884 74.927 478.522C75.5282 478.159 76.042 477.68 76.4346 477.115C76.8272 476.55 77.0897 475.912 77.2048 475.243C78.244 476.481 79.7373 477.298 81.3835 477.528C83.0297 477.759 84.7063 477.386 86.0752 476.484C86.3216 478.237 89.9648 478.774 91.8216 478.665C93.6784 478.556 95.4032 476.727 95.4032 476.727C96.6495 476.969 97.9314 476.995 99.1872 476.803L99.372 476.761C101.81 476.224 103.394 473.406 103.842 471.099C104.48 470.969 105.08 470.708 105.602 470.336C106.469 469.664 107.078 468.738 107.334 467.702C107.59 466.665 107.48 465.577 107.019 464.607Z" fill="#151A1D"/>
<path d="M38.388 584.179C38.388 584.179 33.0288 602.632 31.8496 607.178C30.6704 611.724 30.6792 622.183 33.3368 625.286C35.9944 628.39 44.8824 630.361 44.8824 630.361C44.8824 630.361 62.28 622.267 68.1936 612.395C74.1072 602.523 90.308 575.658 90.308 575.658L85.1776 562.238L58.2144 586.779L58.4872 583.592L38.388 584.179Z" fill="#886962"/>
<path d="M94.6992 519.948C94.9211 519.841 95.1629 519.777 95.4108 519.759C95.6587 519.741 95.9079 519.77 96.1441 519.844C96.3803 519.918 96.5989 520.036 96.7873 520.19C96.9758 520.345 97.1304 520.533 97.2424 520.745L112.774 550.193L108.797 551.871L93.8368 522.322C93.6285 521.897 93.6021 521.411 93.7631 520.968C93.9241 520.525 94.2599 520.159 94.6992 519.948Z" fill="#455A64"/>
<path d="M84.3152 563.127L98.8176 548.868H112.722L121.627 560.074C121.627 560.074 117.412 560.82 115.898 558.665L113.936 555.997C113.936 555.997 115.898 560.099 114.816 562.12C114.816 562.12 112.73 566.8 112.396 567.304C111.762 568.243 111.278 568.847 109.466 568.562C107.653 568.277 104.837 566.884 105.145 565.861C105.24 565.57 105.416 565.31 105.655 565.107C105.894 564.905 106.186 564.768 106.5 564.712L102.267 564.133C102.267 564.133 98.008 571.489 95.4384 573.217C93.8529 574.273 92.1161 575.106 90.2816 575.691L84.3152 563.127Z" fill="#886962"/>
<path d="M58.76 586.352C58.76 586.419 57.5896 586.956 55.7416 587.979C53.3438 589.321 51.0891 590.883 49.0096 592.642C46.9351 594.416 45.0513 596.383 43.3864 598.514C42.1016 600.141 41.4064 601.223 41.3448 601.181C41.4507 600.901 41.5895 600.634 41.7584 600.384C42.0488 599.881 42.5064 599.176 43.1224 598.329C46.3481 593.913 50.6122 590.277 55.5744 587.71C56.5248 587.224 57.3344 586.872 57.8712 586.654C58.1542 586.52 58.4524 586.419 58.76 586.352Z" fill="#2B2625"/>
<path d="M102.012 552.978C102.674 552.795 103.356 552.685 104.045 552.651C105.312 552.5 107.063 552.332 108.99 552.164C109.478 552.106 109.972 552.106 110.46 552.164C110.929 552.229 111.375 552.399 111.762 552.659C112.393 553.091 112.899 553.668 113.232 554.337C113.569 554.919 113.79 555.556 113.883 556.215C113.813 556.215 113.549 555.528 112.95 554.479C112.606 553.881 112.121 553.367 111.534 552.978C111.189 552.767 110.803 552.628 110.398 552.567C109.945 552.517 109.488 552.517 109.034 552.567C107.098 552.726 105.347 552.852 104.071 552.919C103.389 553.008 102.699 553.028 102.012 552.978Z" fill="#2B2625"/>
<path d="M113.082 566.549C113.012 566.549 113.144 565.542 113.082 563.94C113.03 563.003 112.898 562.072 112.686 561.156C112.449 560.149 112.106 558.941 111.05 558.354C110.511 558.081 109.933 557.886 109.334 557.775L107.626 557.406C106.664 557.2 105.688 557.057 104.705 556.979C103.798 556.949 102.89 556.971 101.986 557.046C102.204 556.925 102.447 556.851 102.698 556.828C103.365 556.704 104.044 556.65 104.722 556.668C105.725 556.701 106.723 556.816 107.706 557.012C108.26 557.113 108.841 557.23 109.466 557.365C110.109 557.474 110.73 557.681 111.305 557.977C111.888 558.314 112.344 558.819 112.607 559.419C112.847 559.957 113.018 560.52 113.118 561.097C113.319 562.038 113.425 562.996 113.434 563.957C113.445 564.602 113.404 565.247 113.311 565.886C113.273 566.117 113.195 566.341 113.082 566.549Z" fill="#2B2625"/>
<path d="M108.049 561.76C108.259 562.631 108.334 563.527 108.269 564.418V564.678L107.996 564.628C107.841 564.615 107.685 564.615 107.53 564.628C106.799 564.655 106.109 564.956 105.611 565.467C105.215 565.861 105.092 566.197 105.022 566.171C104.951 566.146 105.022 565.769 105.365 565.274C105.617 564.953 105.944 564.691 106.319 564.509C106.694 564.327 107.109 564.23 107.53 564.225C107.719 564.227 107.908 564.247 108.093 564.284L107.82 564.494C107.751 563.577 107.828 562.655 108.049 561.76Z" fill="#2B2625"/>
<path d="M108.066 562.204C107.126 562.242 106.183 562.2 105.25 562.078C104.306 562.102 103.361 562.048 102.426 561.919C103.337 561.616 104.311 561.521 105.268 561.642C106.234 561.62 107.192 561.812 108.066 562.204Z" fill="#2B2625"/>
<path d="M102.654 561.516C102.708 562.475 102.492 563.431 102.03 564.284C101.712 565.198 101.147 566.017 100.393 566.658C100.287 566.582 100.991 565.534 101.607 564.142C102.223 562.749 102.522 561.491 102.654 561.516Z" fill="#2B2625"/>
<path d="M158.235 722.749L156.986 760.719L206.538 762.447C206.424 757.926 181.133 747.97 181.133 747.97L182.99 723.646L158.235 722.749Z" fill="#FF9A03"/>
<path d="M165.891 745.387C165.409 745.509 164.991 745.797 164.716 746.194C164.442 746.592 164.331 747.072 164.404 747.542C164.514 748.005 164.806 748.411 165.221 748.674C165.635 748.938 166.139 749.04 166.63 748.96C167.141 748.833 167.584 748.528 167.872 748.106C168.161 747.684 168.273 747.175 168.188 746.678C168.022 746.207 167.671 745.814 167.208 745.584C166.745 745.354 166.207 745.305 165.706 745.445" fill="white"/>
<path d="M156.986 760.719L157.267 756.894L204.673 759.981C204.673 759.981 206.846 760.979 206.538 762.447L156.986 760.719Z" fill="white"/>
<path d="M181.951 747.76C181.951 747.987 180.719 748.054 179.496 748.75C178.273 749.446 177.604 750.428 177.384 750.302C177.164 750.176 177.578 748.884 179.074 748.062C180.57 747.24 182.004 747.551 181.951 747.76Z" fill="#151A1D"/>
<path d="M187.064 749.991C187.117 750.218 186.052 750.57 185.19 751.518C184.327 752.466 184.054 753.489 183.817 753.472C183.579 753.455 183.474 752.139 184.565 750.956C185.656 749.773 187.073 749.773 187.064 749.991Z" fill="#151A1D"/>
<path d="M189.792 756.039C189.572 756.039 189.273 754.915 189.95 753.673C190.628 752.432 191.763 751.996 191.86 752.164C191.957 752.331 191.226 753.002 190.698 754.042C190.17 755.082 190.03 756.039 189.792 756.039Z" fill="#151A1D"/>
<path d="M181.722 742.174C181.617 742.384 180.517 742.023 179.144 742.065C177.771 742.107 176.689 742.485 176.574 742.283C176.46 742.082 177.516 741.294 179.126 741.268C180.737 741.243 181.854 741.998 181.722 742.174Z" fill="#151A1D"/>
<path d="M180.763 736.529C180.763 736.63 179.795 736.739 178.282 736.429C177.393 736.25 176.53 735.968 175.712 735.59C175.227 735.365 174.76 735.107 174.313 734.818C174.039 734.663 173.793 734.468 173.582 734.24C173.431 734.069 173.343 733.856 173.332 733.633C173.321 733.41 173.387 733.19 173.521 733.007C173.649 732.851 173.813 732.725 174.001 732.641C174.189 732.556 174.395 732.515 174.603 732.52C174.917 732.526 175.229 732.577 175.527 732.671C176.053 732.809 176.563 732.997 177.05 733.233C177.874 733.62 178.629 734.129 179.285 734.743C180.394 735.8 180.754 736.672 180.675 736.714C180.596 736.756 180.024 736.043 178.915 735.162C178.251 734.656 177.524 734.231 176.75 733.896C176.294 733.708 175.823 733.554 175.342 733.434C174.814 733.284 174.374 733.258 174.225 733.434C174.181 733.518 174.172 733.552 174.278 733.703C174.431 733.869 174.609 734.014 174.806 734.131C175.237 734.416 175.686 734.667 176.09 734.894C176.846 735.283 177.639 735.603 178.458 735.85C179.242 736.025 180.012 736.252 180.763 736.529Z" fill="#151A1D"/>
<path d="M180.429 736.848C180.341 736.848 179.901 736.009 179.866 734.542C179.854 733.138 180.243 731.758 180.992 730.549C181.138 730.242 181.365 729.976 181.65 729.776C181.935 729.577 182.269 729.45 182.62 729.408C182.84 729.423 183.052 729.495 183.231 729.618C183.409 729.742 183.549 729.91 183.632 730.105C183.749 730.387 183.823 730.683 183.852 730.985C183.916 731.516 183.895 732.054 183.79 732.579C183.618 733.459 183.223 734.286 182.638 734.986C181.626 736.177 180.605 736.412 180.587 736.336C180.57 736.261 181.37 735.8 182.154 734.659C182.614 733.997 182.914 733.247 183.034 732.461C183.104 732.008 183.104 731.548 183.034 731.094C182.972 730.591 182.796 730.18 182.594 730.256C182.391 730.331 181.916 730.608 181.714 731.002C181.45 731.399 181.229 731.821 181.054 732.26C180.748 733.013 180.556 733.804 180.482 734.609C180.341 735.951 180.534 736.823 180.429 736.848Z" fill="#151A1D"/>
<path d="M83.9016 723.026L96.4504 759.092L49.4584 774.189C48.2176 769.828 69.4872 753.422 69.4872 753.422L60.4584 730.633L83.9016 723.026Z" fill="#FF9A03"/>
<path d="M83.3296 746.813C83.8307 746.8 84.3189 746.964 84.7006 747.274C85.0823 747.584 85.3305 748.017 85.3976 748.49C85.4306 748.964 85.2723 749.432 84.9549 749.799C84.6375 750.165 84.1851 750.402 83.6904 750.461C83.1618 750.474 82.6469 750.301 82.2442 749.974C81.8415 749.647 81.5793 749.191 81.508 748.691C81.508 747.744 82.5464 746.67 83.5232 746.829" fill="white"/>
<path d="M96.4504 759.083L95.0336 755.494L50.5144 771.321C50.5144 771.321 48.7544 772.864 49.4584 774.189L96.4504 759.083Z" fill="white"/>
<path d="M68.6512 753.439C68.7304 753.648 69.9184 753.38 71.2912 753.724C72.664 754.068 73.5968 754.789 73.7816 754.63C73.9664 754.47 73.1656 753.33 71.4936 752.952C69.8216 752.575 68.528 753.254 68.6512 753.439Z" fill="#151A1D"/>
<path d="M64.3744 756.961C64.3744 757.188 65.5184 757.246 66.6272 757.917C67.736 758.588 68.308 759.503 68.528 759.419C68.748 759.335 68.4664 758.052 67.0672 757.238C65.668 756.424 64.3744 756.752 64.3744 756.961Z" fill="#151A1D"/>
<path d="M63.6 763.487C63.82 763.487 63.7584 762.271 62.72 761.264C61.6816 760.258 60.4584 760.123 60.432 760.333C60.4056 760.543 61.312 760.979 62.104 761.818C62.896 762.656 63.3624 763.537 63.6 763.487Z" fill="#151A1D"/>
<path d="M67.1904 748.02C67.3576 748.196 68.308 747.551 69.628 747.182C70.948 746.812 72.1096 746.913 72.1624 746.695C72.2152 746.477 70.9656 745.999 69.408 746.41C67.8504 746.821 67.0144 747.886 67.1904 748.02Z" fill="#151A1D"/>
<path d="M66.4336 742.35C66.4336 742.443 67.4192 742.283 68.7832 741.579C69.5798 741.165 70.3188 740.658 70.9832 740.069C71.3798 739.72 71.753 739.347 72.1008 738.953C72.3146 738.729 72.4898 738.475 72.62 738.199C72.7173 737.995 72.7398 737.766 72.684 737.548C72.6281 737.33 72.4971 737.137 72.312 736.999C72.1438 736.884 71.9494 736.807 71.7445 736.777C71.5396 736.746 71.3301 736.762 71.1328 736.823C70.8201 736.915 70.5235 737.05 70.2528 737.226C69.7933 737.505 69.3605 737.822 68.9592 738.173C68.2861 738.769 67.7158 739.463 67.2696 740.228C66.7892 740.895 66.5315 741.684 66.5304 742.493C66.6624 742.493 66.9528 741.654 67.78 740.522C68.2649 739.855 68.8354 739.25 69.4784 738.719C69.8589 738.408 70.265 738.128 70.6928 737.88C71.1416 737.595 71.5728 737.46 71.7664 737.628C71.96 737.796 71.8632 737.72 71.7664 737.897C71.6646 738.097 71.5344 738.284 71.3792 738.45C71.07 738.829 70.7348 739.187 70.376 739.524C69.7705 740.106 69.1074 740.631 68.396 741.092C67.252 741.889 66.3808 742.233 66.4336 742.35Z" fill="#151A1D"/>
<path d="M66.8384 742.568C66.9352 742.568 67.1112 741.646 66.6976 740.203C66.289 738.855 65.5044 737.637 64.4272 736.68C64.1938 736.426 63.8955 736.232 63.5611 736.119C63.2266 736.006 62.8673 735.977 62.5176 736.035C62.3099 736.105 62.128 736.231 61.9937 736.398C61.8595 736.564 61.7786 736.765 61.7608 736.974C61.7295 737.274 61.7443 737.576 61.8048 737.871C62.0768 739.29 62.9241 740.55 64.1632 741.377C65.5008 742.216 66.548 742.216 66.5392 742.116C65.846 741.757 65.1759 741.359 64.5328 740.924C63.8983 740.415 63.3878 739.779 63.0368 739.062C62.8374 738.643 62.6983 738.2 62.6232 737.746C62.5264 737.251 62.6232 736.806 62.7816 736.789C62.9874 736.79 63.1907 736.834 63.3774 736.916C63.5642 736.999 63.7301 737.118 63.864 737.268C64.2355 737.579 64.5771 737.921 64.8848 738.291C65.402 738.929 65.8199 739.635 66.1256 740.388C66.6624 741.679 66.7064 742.619 66.8384 742.568Z" fill="#151A1D"/>
<path d="M72.5848 637.364C72.5848 637.364 54.1752 621.806 46.0968 621.94C38.0184 622.074 11.5216 620.388 22.636 655.381C33.8384 690.667 53.9024 744.623 54.448 742.686L89.0144 728.226L74.9344 678.035C74.9344 678.035 121.988 678.538 131.078 677.406C140.169 676.274 157.17 664.825 157.17 664.825L154.46 728.243L190.54 726.33C190.54 726.33 195.609 650.147 197.07 634.496C198.337 620.866 182.268 605.567 165.874 609.015C155.173 611.271 116.902 637.02 116.902 637.02L72.5848 637.364Z" fill="#151A1D"/>
<path d="M158.411 631.141C158.466 631.699 158.466 632.26 158.411 632.818C158.35 633.992 158.262 635.502 158.165 637.331C157.98 641.147 157.848 646.414 157.751 652.244C157.654 658.073 157.54 663.349 157.329 667.165C157.232 669.077 157.109 670.621 157.003 671.686C156.986 672.251 156.909 672.813 156.774 673.363C156.727 672.805 156.727 672.244 156.774 671.686C156.774 670.512 156.845 668.993 156.898 667.173C156.968 663.248 157.056 658.023 157.153 652.244C157.25 646.465 157.443 641.139 157.734 637.322C157.883 635.418 158.033 633.875 158.174 632.81C158.205 632.248 158.285 631.69 158.411 631.141Z" fill="#455A64"/>
<path d="M156.95 660.832C156.319 660.31 155.781 659.692 155.358 659.004C153.135 655.772 151.915 652.006 151.838 648.142C151.768 647.348 151.842 646.547 152.058 645.777C152.26 645.777 151.978 649.426 153.386 653.644C154.794 657.863 157.118 660.732 156.95 660.832Z" fill="#455A64"/>
<path d="M107.855 673.682C107.794 673.682 107.723 672.843 107.442 671.267C107.05 669.078 106.416 666.936 105.55 664.875C104.268 661.827 102.509 658.982 100.331 656.437C97.6533 653.318 94.3659 650.723 90.6512 648.796C82.8544 644.485 75.964 640.241 71.1592 636.937C68.7568 635.259 66.8648 633.867 65.6152 632.827C64.9816 632.323 64.5152 631.896 64.1984 631.611C64.0281 631.474 63.8746 631.319 63.7408 631.149C63.7408 631.149 64.4624 631.678 65.7648 632.651C67.0672 633.624 68.9768 634.999 71.4056 636.601C76.2632 639.822 83.1712 643.99 90.9856 648.344C94.7533 650.31 98.0783 652.963 100.771 656.152C102.961 658.753 104.707 661.665 105.946 664.783C106.801 666.875 107.392 669.058 107.706 671.283C107.798 671.884 107.853 672.489 107.873 673.095C107.888 673.291 107.882 673.488 107.855 673.682Z" fill="#455A64"/>
<path d="M120.589 636.526C120.439 637.032 120.239 637.524 119.99 637.993C119.559 638.924 118.978 640.275 118.31 641.969C114.807 650.802 113.183 660.211 113.531 669.648C113.593 671.451 113.69 672.91 113.786 673.917C113.866 674.439 113.89 674.967 113.857 675.494C113.705 674.986 113.602 674.467 113.549 673.942C113.382 672.944 113.223 671.476 113.109 669.664C112.52 660.171 114.161 650.672 117.914 641.86C118.635 640.182 119.278 638.84 119.779 637.943C119.999 637.446 120.27 636.971 120.589 636.526Z" fill="#455A64"/>
<path d="M51.368 631.963C51.5435 632.053 51.7112 632.157 51.8696 632.273L53.2512 633.238C53.5592 633.447 53.8848 633.682 54.2456 633.942C54.6064 634.202 54.9496 634.538 55.3456 634.873C56.2538 635.615 57.1093 636.414 57.9064 637.264L59.3056 638.748C59.7544 639.293 60.1856 639.872 60.6696 640.426L61.3912 641.34C61.62 641.659 61.8312 641.994 62.0512 642.33C62.4912 643.009 62.9312 643.688 63.4064 644.418C65.2452 647.605 66.7938 650.935 68.0352 654.374C69.3992 658.014 70.4288 661.571 71.3528 664.791L73.7464 673.372C74.4504 675.812 75.0136 677.783 75.4448 679.134C75.6384 679.788 75.788 680.308 75.9112 680.702C75.9675 680.884 76.0116 681.069 76.0432 681.256C75.9496 681.088 75.8759 680.911 75.8232 680.728C75.6912 680.333 75.5064 679.822 75.2864 679.184C74.8112 677.842 74.1952 675.88 73.456 673.447L70.9744 664.892C70.024 661.671 68.9856 658.132 67.6304 654.508C66.3979 651.092 64.8702 647.779 63.0632 644.603C62.632 643.873 62.1832 643.194 61.7344 642.523C61.5144 642.187 61.312 641.852 61.0832 641.533L60.388 640.627C59.9216 640.031 59.508 639.444 59.0504 638.908L57.6864 637.415C56.9068 636.561 56.0721 635.754 55.1872 634.999C54.8 634.655 54.4656 634.32 54.1136 634.043L53.1544 633.322L51.8168 632.298C51.6559 632.201 51.5055 632.088 51.368 631.963Z" fill="#455A64"/>
<path d="M72.2064 637.054C78.7712 641.181 86.0048 642.154 93.74 643.563C98.2016 644.401 102.866 645.114 107.222 643.89C116.558 641.264 125.578 631.132 131.571 627.526L106.535 633.582L72.2064 637.054Z" fill="#4673C9"/>
</svg>
