<svg width="28" height="27" viewBox="0 0 28 27" fill="none" xmlns="http://www.w3.org/2000/svg">
<path d="M5.83714 18.2593L7.57788 15.5973L9.01517 18.4343L5.83714 18.2593Z" fill="#FF9A03"/>
<path d="M22.1671 18.2593L20.4264 15.5973L18.9891 18.4343L22.1671 18.2593Z" fill="#FF9A03"/>
<path d="M27.5042 12.6211H22.4602L27.5042 2.60702V12.6211ZM26.6163 16.7794C26.0438 18.0649 25.2161 19.244 24.1562 20.2842C22.0242 22.3766 19.1048 23.7385 15.9255 24.1296L17.206 13.1144H27.4942C27.4333 14.3753 27.1388 15.6059 26.6163 16.7794ZM13.9996 24.1418L12.4395 18.822H15.5597L13.9996 24.1418ZM3.8439 20.2842C2.78391 19.244 1.95623 18.0647 1.38378 16.7793C0.861262 15.6059 0.566668 14.3753 0.505768 13.1144H10.7932L12.0745 24.1296C8.8951 23.7385 5.97582 22.3765 3.8439 20.2842ZM0.49379 2.60702L5.53774 12.6211H0.49379V2.60702ZM17.2666 12.6211H10.7334L0 0.548245V12.6211C0 18.7669 5.28335 23.8443 12.1322 24.6349C12.1325 24.6349 12.1329 24.635 12.1333 24.635C12.1333 24.6357 12.1334 24.6366 12.1334 24.6372C12.134 25.2492 12.4297 25.7921 12.8861 26.1316C13.197 26.363 13.5825 26.5 14 26.5C14.4176 26.5 14.8031 26.363 15.114 26.1315C15.5703 25.792 15.8659 25.2493 15.8666 24.6374C15.8666 24.6367 15.8666 24.636 15.8666 24.6352C15.867 24.6351 15.8675 24.6349 15.8679 24.6349C22.7167 23.8443 28 18.7669 28 12.6211V0.5L17.2666 12.6211Z" fill="#FF9A03"/>
</svg>